<?xml version="1.0" encoding="utf-8"?>
<!-- Generator: Adobe Illustrator 25.1.0, SVG Export Plug-In . SVG Version: 6.00 Build 0)  -->
<svg version="1.1" id="Ebene_1" xmlns="http://www.w3.org/2000/svg" xmlns:xlink="http://www.w3.org/1999/xlink" x="0px" y="0px"
	 viewBox="0 0 198.4 141.7" style="enable-background:new 0 0 198.4 141.7;" xml:space="preserve">
<style type="text/css">
	.st0{fill:#FFFFFF;}
	.st1{clip-path:url(#SVGID_2_);fill-rule:evenodd;clip-rule:evenodd;}
	.st2{clip-path:url(#SVGID_2_);}
	.st3{clip-path:url(#SVGID_2_);fill-rule:evenodd;clip-rule:evenodd;fill:#0072BB;}
	.st4{clip-path:url(#SVGID_2_);fill:#0072BB;}
</style>
<rect x="0" class="st0" width="198.4" height="106.3"/>
<g>
	<defs>
		<rect id="SVGID_1_" width="198.4" height="141.7"/>
	</defs>
	<clipPath id="SVGID_2_">
		<use xlink:href="#SVGID_1_"  style="overflow:visible;"/>
	</clipPath>
	<path class="st1" d="M49.7,54.2V53c0-6.5-1.2-10.8-6.6-10.8c-6.2,0-7.1,5.3-7.1,11c0,5.3,0.3,11.4,6.9,11.4c4.3,0,6.3-2.8,6.5-7.7
		h-4.1c-0.3,2.6-0.9,4-2.4,4c-1.7,0-2.3-2.5-2.3-5v-1.7H49.7z M40.6,51v-0.8c0-2,0.5-4.2,2.4-4.2c1.9,0,2.2,1.8,2.3,5.1H40.6z"/>
	<path class="st1" d="M56,53.4c0-4.6,0.4-7,2.4-7c2,0,2.4,2.4,2.4,7c0,4.6-0.4,7-2.4,7C56.4,60.4,56,58,56,53.4 M51.4,64h4.4v-2.3
		h0.1c1,2,2.3,2.8,4.1,2.8c3.8,0,5.5-3.3,5.5-11.2c0-7.9-1.7-11.2-5.5-11.2c-1.7,0-2.9,0.8-3.9,2.5H56v-8.9h-4.6V64z"/>
	<path class="st2" d="M67.4,64H72V50c0-2.5,0.9-3.6,2.4-3.6c1.3,0,1.8,1,1.8,2.8V64h4.6V50c0-2.5,0.9-3.6,2.4-3.6
		c1.3,0,1.8,1,1.8,2.8V64h4.6V48.6c0-4.1-1.4-6.4-4.5-6.4c-2.2,0-3.8,1.1-4.5,3.4h-0.1c-0.5-2.2-2-3.4-4.1-3.4
		c-1.9,0-3.4,0.8-4.5,2.7h-0.1v-2.2h-4.4V64z"/>
	<path class="st3" d="M97.9,53.4c0-4.6,0.4-7,2.4-7c2,0,2.4,2.4,2.4,7c0,4.6-0.4,7-2.4,7C98.3,60.4,97.9,58,97.9,53.4 M93.3,71h4.6
		v-8.9h0.1c1,1.7,2.1,2.5,3.9,2.5c3.8,0,5.5-3.3,5.5-11.2c0-7.9-1.7-11.2-5.5-11.2c-1.8,0-3.1,0.8-4.1,2.8h-0.1v-2.3h-4.4V71z"/>
	<path class="st3" d="M113.3,49.3v-0.6c0-1.7,0.7-2.8,2.1-2.8c1.5,0,2.1,1,2.1,2.6c0,1.4-0.5,2.1-1.8,2.5l-2.6,0.8
		c-3.2,1-4.5,2.7-4.5,6.7c0,2.8,1.1,6.1,4.3,6.1c2.2,0,3.5-0.6,4.6-2.8h0.1c0.1,0.7,0.3,1.5,0.6,2.2h4.4c-0.5-1.2-0.6-2.1-0.6-4.1
		V48.7c0-3.8-1-6.5-6.5-6.5c-3.5,0-6.3,1.7-6.3,6.6v0.5H113.3z M117.6,57.6c0,2.3-1.6,3.3-2.8,3.3c-1.2,0-1.7-1.3-1.7-3
		c0-1.9,0.7-3,2.6-3.4c0.6-0.2,1.3-0.5,2-1.1V57.6z"/>
	<path class="st3" d="M129.2,53.4c0-4.6,0.4-7,2.4-7c2,0,2.4,2.4,2.4,7c0,4.6-0.4,7-2.4,7C129.6,60.4,129.2,58,129.2,53.4 M124.6,71
		h4.6v-8.9h0.1c1,1.7,2.1,2.5,3.9,2.5c3.8,0,5.5-3.3,5.5-11.2c0-7.9-1.7-11.2-5.5-11.2c-1.8,0-3.1,0.8-4.1,2.8H129v-2.3h-4.4V71z"/>
	<path class="st4" d="M139.8,57.1v0.8c0,4.1,1.4,6.8,6.6,6.8c3.9,0,6.7-2.2,6.7-6.7c0-3.2-1.1-5-4-6.1l-2.8-1.1
		c-1.5-0.6-2-1.5-2-2.5c0-1.5,1-2.3,2.2-2.3c1.5,0,2,1.1,2,3.2h4.1v-0.9c0-3.8-2-6.1-6.1-6.1c-4.7,0-6.6,2.9-6.6,6.4
		c0,3,1.3,4.9,3.8,5.9l3.2,1.4c0.9,0.4,1.7,1,1.7,2.4c0,1.7-0.9,2.5-2.3,2.5c-1.6,0-2.4-1.2-2.4-3.1v-0.7H139.8z"/>
	<path class="st4" d="M155.7,42.7h-2.3v3.7h2.3v12.2c0,4.3,0.7,5.6,4.3,5.6c1.1,0,2-0.1,3-0.2v-3.8c-0.3,0-0.7,0.1-1,0.1
		c-1.3,0-1.6-0.7-1.6-2.3V46.5h2.7v-3.7h-2.7v-6.1h-4.6V42.7z"/>
	<rect x="0" y="106.3" class="st4" width="198.4" height="35.4"/>
</g>
<g>
	<path class="st0" d="M32.7,126.5c0.3,0,0.6,0,1-0.1s0.7-0.2,1-0.3v1.3c-0.2,0.1-0.5,0.2-1,0.3s-0.9,0.1-1.3,0.1
		c-0.5,0-0.9-0.1-1.3-0.2c-0.4-0.1-0.8-0.3-1.1-0.6s-0.6-0.6-0.7-1s-0.3-0.9-0.3-1.6c0-0.6,0.1-1.1,0.3-1.6s0.4-0.8,0.7-1.1
		s0.6-0.5,1-0.7c0.4-0.1,0.8-0.2,1.2-0.2c0.4,0,0.8,0.1,1.2,0.2s0.7,0.3,0.9,0.6s0.5,0.6,0.6,1.1c0.1,0.4,0.2,0.9,0.2,1.5
		c0,0.2,0,0.4,0,0.6h-4.3c0,0.3,0.1,0.6,0.2,0.8c0.1,0.2,0.3,0.4,0.4,0.5c0.2,0.1,0.4,0.2,0.6,0.3C32.2,126.5,32.4,126.5,32.7,126.5
		z M32.1,122.1c-0.2,0-0.4,0-0.5,0.1c-0.2,0.1-0.3,0.2-0.4,0.3c-0.1,0.1-0.2,0.3-0.3,0.5s-0.1,0.4-0.1,0.6h2.6c0-0.2,0-0.4-0.1-0.6
		s-0.1-0.3-0.2-0.5c-0.1-0.1-0.2-0.2-0.4-0.3C32.5,122.2,32.3,122.1,32.1,122.1z"/>
	<path class="st0" d="M37.9,121.9L37.9,121.9c0.1-0.1,0.2-0.3,0.4-0.4s0.3-0.2,0.5-0.3s0.4-0.2,0.6-0.2c0.2-0.1,0.5-0.1,0.7-0.1
		c0.2,0,0.5,0,0.7,0.1s0.4,0.1,0.6,0.3c0.2,0.1,0.4,0.3,0.5,0.5c0.1,0.2,0.3,0.4,0.3,0.7c0,0.1,0.1,0.3,0.1,0.5c0,0.2,0,0.4,0,0.6
		v4.3h-1.6v-4c0-0.2,0-0.3,0-0.5s0-0.2-0.1-0.3c-0.1-0.2-0.2-0.4-0.4-0.5s-0.4-0.1-0.6-0.1c-0.3,0-0.6,0.1-0.9,0.2
		c-0.3,0.1-0.5,0.4-0.8,0.6v4.6h-1.6V121h1.3L37.9,121.9z"/>
	<path class="st0" d="M48.4,127.8c0-0.1,0-0.2,0-0.3c0-0.1,0-0.2,0-0.3h0c-0.1,0.1-0.2,0.2-0.3,0.2c-0.1,0.1-0.3,0.2-0.4,0.2
		c-0.2,0.1-0.3,0.1-0.5,0.2c-0.2,0-0.4,0.1-0.6,0.1c-0.4,0-0.7-0.1-1-0.2c-0.3-0.1-0.6-0.3-0.9-0.6c-0.3-0.3-0.5-0.6-0.6-1
		s-0.2-0.9-0.2-1.5s0.1-1.1,0.2-1.6c0.2-0.4,0.4-0.8,0.6-1.1s0.6-0.5,0.9-0.7c0.3-0.2,0.7-0.2,1.1-0.2c0.4,0,0.8,0.1,1.1,0.3
		c0.3,0.2,0.6,0.4,0.8,0.7h0l0.1-0.7h1.4v6.7c0,0.4,0,0.7-0.1,1s-0.2,0.5-0.3,0.7c-0.1,0.3-0.3,0.5-0.6,0.7s-0.5,0.3-0.8,0.5
		s-0.6,0.2-1,0.3c-0.3,0.1-0.7,0.1-1.1,0.1c-0.2,0-0.4,0-0.6,0c-0.2,0-0.4,0-0.6-0.1c-0.2,0-0.4-0.1-0.5-0.1c-0.2,0-0.3-0.1-0.4-0.1
		v-1.3c0.3,0.1,0.6,0.2,0.9,0.2c0.3,0.1,0.7,0.1,1,0.1c0.7,0,1.3-0.1,1.7-0.4c0.4-0.3,0.6-0.7,0.6-1.3V127.8z M47,126.5
		c0.2,0,0.3,0,0.5-0.1s0.3-0.1,0.4-0.2s0.2-0.1,0.3-0.2s0.2-0.2,0.2-0.2v-3c-0.2-0.2-0.4-0.4-0.6-0.5s-0.5-0.2-0.8-0.2
		c-0.1,0-0.2,0-0.3,0c-0.1,0-0.2,0.1-0.3,0.1s-0.2,0.1-0.3,0.3c-0.1,0.1-0.2,0.2-0.3,0.4s-0.1,0.4-0.2,0.6s-0.1,0.5-0.1,0.8
		c0,0.3,0,0.6,0.1,0.9c0.1,0.3,0.2,0.5,0.3,0.7c0.1,0.2,0.3,0.3,0.5,0.4C46.5,126.5,46.7,126.5,47,126.5z"/>
	<path class="st0" d="M51.8,117.7h1.7v1.8h-1.7V117.7z M51.8,121h1.6v6.6h-1.6V121z"/>
	<path class="st0" d="M56.6,121.9L56.6,121.9c0.1-0.1,0.2-0.3,0.4-0.4s0.3-0.2,0.5-0.3s0.4-0.2,0.6-0.2c0.2-0.1,0.5-0.1,0.7-0.1
		c0.2,0,0.5,0,0.7,0.1s0.4,0.1,0.6,0.3c0.2,0.1,0.4,0.3,0.5,0.5c0.1,0.2,0.3,0.4,0.3,0.7c0,0.1,0.1,0.3,0.1,0.5c0,0.2,0,0.4,0,0.6
		v4.3h-1.6v-4c0-0.2,0-0.3,0-0.5s0-0.2-0.1-0.3c-0.1-0.2-0.2-0.4-0.4-0.5s-0.4-0.1-0.6-0.1c-0.3,0-0.6,0.1-0.9,0.2
		c-0.3,0.1-0.5,0.4-0.8,0.6v4.6h-1.6V121h1.3L56.6,121.9z"/>
	<path class="st0" d="M66.2,126.5c0.3,0,0.6,0,1-0.1s0.7-0.2,1-0.3v1.3c-0.2,0.1-0.5,0.2-1,0.3s-0.9,0.1-1.3,0.1
		c-0.5,0-0.9-0.1-1.3-0.2c-0.4-0.1-0.8-0.3-1.1-0.6s-0.6-0.6-0.7-1s-0.3-0.9-0.3-1.6c0-0.6,0.1-1.1,0.3-1.6s0.4-0.8,0.7-1.1
		s0.6-0.5,1-0.7c0.4-0.1,0.8-0.2,1.2-0.2c0.4,0,0.8,0.1,1.2,0.2s0.7,0.3,0.9,0.6s0.5,0.6,0.6,1.1c0.1,0.4,0.2,0.9,0.2,1.5
		c0,0.2,0,0.4,0,0.6h-4.3c0,0.3,0.1,0.6,0.2,0.8c0.1,0.2,0.3,0.4,0.4,0.5c0.2,0.1,0.4,0.2,0.6,0.3C65.7,126.5,66,126.5,66.2,126.5z
		 M65.6,122.1c-0.2,0-0.4,0-0.5,0.1c-0.2,0.1-0.3,0.2-0.4,0.3c-0.1,0.1-0.2,0.3-0.3,0.5s-0.1,0.4-0.1,0.6h2.6c0-0.2,0-0.4-0.1-0.6
		s-0.1-0.3-0.2-0.5c-0.1-0.1-0.2-0.2-0.4-0.3C66,122.2,65.8,122.1,65.6,122.1z"/>
	<path class="st0" d="M73.4,126.5c0.3,0,0.6,0,1-0.1s0.7-0.2,1-0.3v1.3c-0.2,0.1-0.5,0.2-1,0.3s-0.9,0.1-1.3,0.1
		c-0.5,0-0.9-0.1-1.3-0.2c-0.4-0.1-0.8-0.3-1.1-0.6s-0.6-0.6-0.7-1s-0.3-0.9-0.3-1.6c0-0.6,0.1-1.1,0.3-1.6s0.4-0.8,0.7-1.1
		s0.6-0.5,1-0.7c0.4-0.1,0.8-0.2,1.2-0.2c0.4,0,0.8,0.1,1.2,0.2s0.7,0.3,0.9,0.6s0.5,0.6,0.6,1.1c0.1,0.4,0.2,0.9,0.2,1.5
		c0,0.2,0,0.4,0,0.6h-4.3c0,0.3,0.1,0.6,0.2,0.8c0.1,0.2,0.3,0.4,0.4,0.5c0.2,0.1,0.4,0.2,0.6,0.3C72.8,126.5,73.1,126.5,73.4,126.5
		z M72.7,122.1c-0.2,0-0.4,0-0.5,0.1c-0.2,0.1-0.3,0.2-0.4,0.3c-0.1,0.1-0.2,0.3-0.3,0.5s-0.1,0.4-0.1,0.6H74c0-0.2,0-0.4-0.1-0.6
		s-0.1-0.3-0.2-0.5c-0.1-0.1-0.2-0.2-0.4-0.3C73.1,122.2,72.9,122.1,72.7,122.1z"/>
	<path class="st0" d="M81,122.3h-0.1c-0.5,0-0.9,0.1-1.3,0.2c-0.4,0.1-0.7,0.4-0.9,0.7v4.4h-1.6V121h1.3l0.2,0.9h0
		c0.2-0.3,0.5-0.6,0.8-0.8c0.3-0.2,0.7-0.3,1.2-0.3c0.2,0,0.3,0,0.4,0V122.3z"/>
	<path class="st0" d="M82,117.7h1.7v1.8H82V117.7z M82,121h1.6v6.6H82V121z"/>
	<path class="st0" d="M86.8,121.9L86.8,121.9c0.1-0.1,0.2-0.3,0.4-0.4s0.3-0.2,0.5-0.3s0.4-0.2,0.6-0.2c0.2-0.1,0.5-0.1,0.7-0.1
		c0.2,0,0.5,0,0.7,0.1s0.4,0.1,0.6,0.3c0.2,0.1,0.4,0.3,0.5,0.5c0.1,0.2,0.3,0.4,0.3,0.7c0,0.1,0.1,0.3,0.1,0.5c0,0.2,0,0.4,0,0.6
		v4.3h-1.6v-4c0-0.2,0-0.3,0-0.5s0-0.2-0.1-0.3c-0.1-0.2-0.2-0.4-0.4-0.5s-0.4-0.1-0.6-0.1c-0.3,0-0.6,0.1-0.9,0.2
		c-0.3,0.1-0.5,0.4-0.8,0.6v4.6h-1.6V121h1.3L86.8,121.9z"/>
	<path class="st0" d="M97.4,127.8c0-0.1,0-0.2,0-0.3c0-0.1,0-0.2,0-0.3h0c-0.1,0.1-0.2,0.2-0.3,0.2c-0.1,0.1-0.3,0.2-0.4,0.2
		c-0.2,0.1-0.3,0.1-0.5,0.2c-0.2,0-0.4,0.1-0.6,0.1c-0.4,0-0.7-0.1-1-0.2c-0.3-0.1-0.6-0.3-0.9-0.6c-0.3-0.3-0.5-0.6-0.6-1
		s-0.2-0.9-0.2-1.5s0.1-1.1,0.2-1.6c0.2-0.4,0.4-0.8,0.6-1.1s0.6-0.5,0.9-0.7c0.3-0.2,0.7-0.2,1.1-0.2c0.4,0,0.8,0.1,1.1,0.3
		c0.3,0.2,0.6,0.4,0.8,0.7h0l0.1-0.7H99v6.7c0,0.4,0,0.7-0.1,1s-0.2,0.5-0.3,0.7c-0.1,0.3-0.3,0.5-0.6,0.7s-0.5,0.3-0.8,0.5
		s-0.6,0.2-1,0.3c-0.3,0.1-0.7,0.1-1.1,0.1c-0.2,0-0.4,0-0.6,0c-0.2,0-0.4,0-0.6-0.1c-0.2,0-0.4-0.1-0.5-0.1c-0.2,0-0.3-0.1-0.4-0.1
		v-1.3c0.3,0.1,0.6,0.2,0.9,0.2c0.3,0.1,0.7,0.1,1,0.1c0.7,0,1.3-0.1,1.7-0.4c0.4-0.3,0.6-0.7,0.6-1.3V127.8z M95.9,126.5
		c0.2,0,0.3,0,0.5-0.1s0.3-0.1,0.4-0.2s0.2-0.1,0.3-0.2s0.2-0.2,0.2-0.2v-3c-0.2-0.2-0.4-0.4-0.6-0.5s-0.5-0.2-0.8-0.2
		c-0.1,0-0.2,0-0.3,0c-0.1,0-0.2,0.1-0.3,0.1s-0.2,0.1-0.3,0.3c-0.1,0.1-0.2,0.2-0.3,0.4s-0.1,0.4-0.2,0.6s-0.1,0.5-0.1,0.8
		c0,0.3,0,0.6,0.1,0.9c0.1,0.3,0.2,0.5,0.3,0.7c0.1,0.2,0.3,0.3,0.5,0.4C95.4,126.5,95.7,126.5,95.9,126.5z"/>
	<path class="st0" d="M107.4,126.9L107.4,126.9c-0.1,0.1-0.2,0.2-0.4,0.3s-0.3,0.2-0.4,0.3c-0.2,0.1-0.3,0.2-0.5,0.2
		s-0.4,0.1-0.6,0.1c-0.3,0-0.6,0-0.9-0.1c-0.3-0.1-0.5-0.2-0.7-0.4c-0.2-0.2-0.3-0.4-0.5-0.7c-0.1-0.3-0.2-0.6-0.2-0.9
		c0-0.4,0.1-0.7,0.2-1c0.1-0.3,0.3-0.5,0.5-0.7s0.5-0.3,0.8-0.4c0.3-0.1,0.7-0.2,1.1-0.2c0.3,0,0.6,0,0.8,0.1s0.5,0.1,0.6,0.1v-0.3
		c0-0.2,0-0.3-0.1-0.4c-0.1-0.1-0.1-0.3-0.3-0.4c-0.1-0.1-0.3-0.2-0.5-0.3c-0.2-0.1-0.4-0.1-0.7-0.1c-0.3,0-0.7,0-1,0.1
		s-0.7,0.2-1.1,0.3v-1.3c0.3-0.1,0.7-0.3,1.1-0.3s0.8-0.1,1.2-0.1c0.5,0,0.9,0.1,1.3,0.2c0.4,0.1,0.7,0.3,0.9,0.5
		c0.2,0.2,0.4,0.5,0.5,0.7c0.1,0.3,0.2,0.6,0.2,0.9v2.5c0,0.4,0,0.8,0,1.1s0,0.6,0,0.8h-1.5L107.4,126.9z M107.3,124.8
		c-0.2,0-0.3-0.1-0.5-0.1c-0.2,0-0.4,0-0.6,0c-0.4,0-0.7,0.1-0.9,0.2c-0.2,0.2-0.3,0.4-0.3,0.7c0,0.2,0,0.3,0.1,0.4
		c0.1,0.1,0.1,0.2,0.2,0.3c0.1,0.1,0.2,0.1,0.3,0.2s0.2,0.1,0.4,0.1c0.2,0,0.3,0,0.5-0.1c0.1,0,0.3-0.1,0.4-0.2
		c0.1-0.1,0.2-0.1,0.3-0.2c0.1-0.1,0.2-0.2,0.2-0.2V124.8z"/>
	<path class="st0" d="M119.9,124.2c0,0.6-0.1,1.1-0.3,1.6s-0.4,0.8-0.7,1.1c-0.3,0.3-0.6,0.5-0.9,0.7c-0.4,0.1-0.7,0.2-1.1,0.2
		c-0.3,0-0.5,0-0.7-0.1c-0.2-0.1-0.4-0.1-0.5-0.2s-0.3-0.2-0.4-0.3c-0.1-0.1-0.2-0.2-0.2-0.3h0l-0.2,0.7h-1.3c0-0.2,0-0.4,0-0.7
		c0-0.3,0-0.6,0-0.8v-8.3h1.6v2.8c0,0.2,0,0.4,0,0.5c0,0.2,0,0.3,0,0.4h0c0.1-0.1,0.2-0.1,0.3-0.2s0.3-0.1,0.4-0.2s0.3-0.1,0.5-0.1
		s0.3,0,0.5,0c0.4,0,0.7,0.1,1.1,0.2c0.3,0.1,0.7,0.3,0.9,0.6c0.3,0.3,0.5,0.6,0.6,1.1C119.8,123.2,119.9,123.7,119.9,124.2z
		 M118.2,124.3c0-0.4,0-0.8-0.2-1.1c-0.1-0.3-0.2-0.5-0.4-0.7c-0.2-0.2-0.3-0.3-0.5-0.3c-0.2-0.1-0.4-0.1-0.5-0.1
		c-0.2,0-0.5,0-0.7,0.1s-0.5,0.2-0.7,0.4v3.2c0.1,0.1,0.1,0.1,0.2,0.2c0.1,0.1,0.2,0.2,0.3,0.2c0.1,0.1,0.2,0.1,0.4,0.2
		c0.1,0,0.3,0.1,0.4,0.1c0.3,0,0.5-0.1,0.7-0.2c0.2-0.1,0.4-0.3,0.5-0.5c0.1-0.2,0.2-0.4,0.3-0.7
		C118.1,124.9,118.2,124.6,118.2,124.3z"/>
	<path class="st0" d="M124.7,126.5c0.3,0,0.6,0,1-0.1s0.7-0.2,1-0.3v1.3c-0.2,0.1-0.5,0.2-1,0.3s-0.9,0.1-1.3,0.1
		c-0.5,0-0.9-0.1-1.3-0.2c-0.4-0.1-0.8-0.3-1.1-0.6s-0.6-0.6-0.7-1c-0.2-0.4-0.3-0.9-0.3-1.6c0-0.6,0.1-1.1,0.3-1.6s0.4-0.8,0.7-1.1
		s0.6-0.5,1-0.7c0.4-0.1,0.8-0.2,1.2-0.2c0.4,0,0.8,0.1,1.2,0.2c0.4,0.1,0.7,0.3,0.9,0.6c0.3,0.3,0.5,0.6,0.6,1.1
		c0.1,0.4,0.2,0.9,0.2,1.5c0,0.2,0,0.4,0,0.6h-4.3c0,0.3,0.1,0.6,0.2,0.8c0.1,0.2,0.3,0.4,0.4,0.5c0.2,0.1,0.4,0.2,0.6,0.3
		C124.1,126.5,124.4,126.5,124.7,126.5z M124,122.1c-0.2,0-0.4,0-0.5,0.1c-0.2,0.1-0.3,0.2-0.4,0.3c-0.1,0.1-0.2,0.3-0.3,0.5
		s-0.1,0.4-0.1,0.6h2.6c0-0.2,0-0.4-0.1-0.6c-0.1-0.2-0.1-0.3-0.2-0.5c-0.1-0.1-0.2-0.2-0.4-0.3C124.4,122.2,124.2,122.1,124,122.1z
		"/>
	<path class="st0" d="M132.5,127.6c-0.2,0.1-0.4,0.1-0.7,0.1c-0.3,0-0.5,0-0.7,0c-0.6,0-1-0.1-1.4-0.3c-0.4-0.2-0.6-0.4-0.7-0.8
		c-0.1-0.2-0.2-0.6-0.2-1v-3.4h-1.2V121h1.2v-1.9h1.6v1.9h1.9v1.3h-1.9v3.2c0,0.3,0,0.4,0.1,0.6c0.1,0.2,0.4,0.3,0.8,0.3
		c0.2,0,0.4,0,0.6,0c0.2,0,0.4-0.1,0.5-0.1V127.6z"/>
	<path class="st0" d="M138,127.6c-0.2,0.1-0.4,0.1-0.7,0.1c-0.3,0-0.5,0-0.7,0c-0.6,0-1-0.1-1.4-0.3c-0.4-0.2-0.6-0.4-0.7-0.8
		c-0.1-0.2-0.2-0.6-0.2-1v-3.4h-1.2V121h1.2v-1.9h1.6v1.9h1.9v1.3H136v3.2c0,0.3,0,0.4,0.1,0.6c0.1,0.2,0.4,0.3,0.8,0.3
		c0.2,0,0.4,0,0.6,0c0.2,0,0.4-0.1,0.5-0.1V127.6z"/>
	<path class="st0" d="M142.5,126.5c0.3,0,0.6,0,1-0.1s0.7-0.2,1-0.3v1.3c-0.2,0.1-0.5,0.2-1,0.3s-0.9,0.1-1.3,0.1
		c-0.5,0-0.9-0.1-1.3-0.2c-0.4-0.1-0.8-0.3-1.1-0.6s-0.6-0.6-0.7-1c-0.2-0.4-0.3-0.9-0.3-1.6c0-0.6,0.1-1.1,0.3-1.6s0.4-0.8,0.7-1.1
		s0.6-0.5,1-0.7c0.4-0.1,0.8-0.2,1.2-0.2c0.4,0,0.8,0.1,1.2,0.2c0.4,0.1,0.7,0.3,0.9,0.6c0.3,0.3,0.5,0.6,0.6,1.1
		c0.1,0.4,0.2,0.9,0.2,1.5c0,0.2,0,0.4,0,0.6h-4.3c0,0.3,0.1,0.6,0.2,0.8c0.1,0.2,0.3,0.4,0.4,0.5c0.2,0.1,0.4,0.2,0.6,0.3
		C142,126.5,142.2,126.5,142.5,126.5z M141.9,122.1c-0.2,0-0.4,0-0.5,0.1c-0.2,0.1-0.3,0.2-0.4,0.3c-0.1,0.1-0.2,0.3-0.3,0.5
		s-0.1,0.4-0.1,0.6h2.6c0-0.2,0-0.4-0.1-0.6c-0.1-0.2-0.1-0.3-0.2-0.5c-0.1-0.1-0.2-0.2-0.4-0.3
		C142.2,122.2,142.1,122.1,141.9,122.1z"/>
	<path class="st0" d="M150.2,122.3H150c-0.5,0-0.9,0.1-1.3,0.2c-0.4,0.1-0.7,0.4-0.9,0.7v4.4h-1.6V121h1.3l0.2,0.9h0
		c0.2-0.3,0.5-0.6,0.8-0.8c0.3-0.2,0.7-0.3,1.2-0.3c0.2,0,0.3,0,0.4,0V122.3z"/>
	<path class="st0" d="M153.9,127.6v-9.9h1.6v9.9H153.9z"/>
	<path class="st0" d="M157.3,117.7h1.7v1.8h-1.7V117.7z M157.3,121h1.6v6.6h-1.6V121z"/>
	<path class="st0" d="M164.9,119.1c-0.2,0-0.4-0.1-0.5-0.1c-0.2,0-0.4,0-0.5,0c-0.2,0-0.3,0-0.5,0.1c-0.1,0-0.3,0.1-0.4,0.2
		c-0.1,0.1-0.2,0.2-0.2,0.4s-0.1,0.4-0.1,0.6v0.9h1.8v1.3h-1.8v5.3h-1.6v-5.3h-1.1V121h1.1v-0.8c0-0.5,0.1-0.9,0.2-1.2
		c0.1-0.3,0.3-0.6,0.5-0.8c0.2-0.2,0.5-0.4,0.8-0.5c0.3-0.1,0.7-0.2,1-0.2c0.2,0,0.5,0,0.7,0.1c0.2,0,0.4,0.1,0.6,0.1V119.1z"/>
	<path class="st0" d="M168.8,126.5c0.3,0,0.6,0,1-0.1s0.7-0.2,1-0.3v1.3c-0.2,0.1-0.5,0.2-1,0.3s-0.9,0.1-1.3,0.1
		c-0.5,0-0.9-0.1-1.3-0.2c-0.4-0.1-0.8-0.3-1.1-0.6s-0.6-0.6-0.7-1c-0.2-0.4-0.3-0.9-0.3-1.6c0-0.6,0.1-1.1,0.3-1.6s0.4-0.8,0.7-1.1
		s0.6-0.5,1-0.7c0.4-0.1,0.8-0.2,1.2-0.2c0.4,0,0.8,0.1,1.2,0.2c0.4,0.1,0.7,0.3,0.9,0.6c0.3,0.3,0.5,0.6,0.6,1.1
		c0.1,0.4,0.2,0.9,0.2,1.5c0,0.2,0,0.4,0,0.6h-4.3c0,0.3,0.1,0.6,0.2,0.8c0.1,0.2,0.3,0.4,0.4,0.5c0.2,0.1,0.4,0.2,0.6,0.3
		C168.2,126.5,168.5,126.5,168.8,126.5z M168.1,122.1c-0.2,0-0.4,0-0.5,0.1c-0.2,0.1-0.3,0.2-0.4,0.3c-0.1,0.1-0.2,0.3-0.3,0.5
		s-0.1,0.4-0.1,0.6h2.6c0-0.2,0-0.4-0.1-0.6c-0.1-0.2-0.1-0.3-0.2-0.5c-0.1-0.1-0.2-0.2-0.4-0.3
		C168.5,122.2,168.4,122.1,168.1,122.1z"/>
</g>
</svg>
